<svg width="512" height="512" viewBox="0 0 512 512" fill="none" xmlns="http://www.w3.org/2000/svg">
<rect width="512" height="512" rx="256" fill="#0B0F2D" fill-opacity="0.01"/>
<path d="M235.293 107.076C244.06 91.0466 267.082 91.0466 275.848 107.076L317.932 184.023C320.053 187.901 323.241 191.089 327.119 193.21L404.066 235.293C420.095 244.06 420.095 267.082 404.066 275.848L327.119 317.932C323.241 320.053 320.053 323.241 317.932 327.119L275.848 404.066C267.082 420.095 244.06 420.095 235.293 404.066L193.21 327.119C191.089 323.241 187.901 320.053 184.023 317.932L107.076 275.848C91.0466 267.082 91.0466 244.06 107.076 235.293L184.023 193.21C187.901 191.089 191.089 187.901 193.21 184.023L235.293 107.076Z" fill="white"/>
<path d="M317.092 368.953L326.5 338.18C328.557 331.452 334.766 326.857 341.801 326.857H369.916C376.719 326.857 382.778 331.159 385.021 337.581L404.023 391.98C408.589 405.051 395.523 417.358 382.748 412.019L326.223 388.393C318.636 385.222 314.688 376.816 317.092 368.953Z" fill="white"/>
<path d="M194.622 368.953L185.214 338.18C183.157 331.452 176.948 326.857 169.913 326.857H141.798C134.996 326.857 128.937 331.159 126.693 337.581L107.691 391.98C103.125 405.051 116.191 417.358 128.966 412.019L185.491 388.393C193.078 385.222 197.026 376.816 194.622 368.953Z" fill="white"/>
<path d="M314.092 137.762L323.5 168.535C325.557 175.263 331.766 179.857 338.801 179.857H366.916C373.719 179.857 379.778 175.556 382.021 169.134L401.023 114.735C405.589 101.663 392.523 89.3566 379.748 94.6961L323.223 118.322C315.636 121.493 311.688 129.899 314.092 137.762Z" fill="white"/>
<path d="M191.622 137.762L182.214 168.535C180.157 175.263 173.948 179.857 166.913 179.857H138.798C131.996 179.857 125.937 175.556 123.693 169.134L104.691 114.735C100.125 101.663 113.191 89.3566 125.966 94.6961L182.491 118.322C190.078 121.493 194.026 129.899 191.622 137.762Z" fill="white"/>
</svg>
