<svg width="17" height="16" viewBox="0 0 17 16" fill="none" xmlns="http://www.w3.org/2000/svg">
<g clip-path="url(#clip0_581_370)">
<path d="M1.71486 6.92888C1.12313 6.92888 0.643433 7.40858 0.643433 8.00031C0.643433 8.59204 1.12313 9.07174 1.71486 9.07174V8.00031V6.92888ZM16.6153 8.75792C17.0337 8.33951 17.0337 7.66111 16.6153 7.2427L9.79681 0.424166C9.37839 0.0057469 8.7 0.0057469 8.28158 0.424166C7.86316 0.842585 7.86316 1.52098 8.28158 1.93939L14.3425 8.00031L8.28158 14.0612C7.86316 14.4796 7.86316 15.158 8.28158 15.5764C8.7 15.9949 9.37839 15.9949 9.79681 15.5764L16.6153 8.75792ZM1.71486 8.00031V9.07174H15.8577V8.00031V6.92888H1.71486V8.00031Z" fill="#282B46"/>
</g>
<defs>
<clipPath id="clip0_581_370">
<rect width="17" height="16" fill="white"/>
</clipPath>
</defs>
</svg>
